<svg id="Calque_1" data-name="Calque 1" xmlns="http://www.w3.org/2000/svg" viewBox="0 0 27.78 27.78"><defs><style>.cls-1{fill:#fff;}.cls-2{fill:#37589a;}</style></defs><title>partage-facebook</title><g id="Fb"><path class="cls-1" d="M27.14,22.33a.59.59,0,0,1,.61-.67H29.3V19.28H27.16a2.71,2.71,0,0,0-2.91,2.91v1.59H22.88v2.45h1.37v6.94h2.89V26.22h1.94l.26-2.45h-2.2Z" transform="translate(-12.22 -12.33)"/><path class="cls-2" d="M12.22,12.33V40.11H40V12.33ZM29.08,26.22H27.14v6.94H24.25V26.22H22.88V23.77h1.37V22.18a2.71,2.71,0,0,1,2.91-2.91H29.3v2.38H27.75a.59.59,0,0,0-.61.67v1.44h2.2Z" transform="translate(-12.22 -12.33)"/></g></svg>