<svg xmlns="http://www.w3.org/2000/svg" width="132" height="132"><radialGradient id="a" cx="-252.273" cy="-216.219" r="66.004" gradientTransform="matrix(0 -1.982 -1.8439 0 -363.622 -357.833)" gradientUnits="userSpaceOnUse"><stop offset="0" stop-color="#fd5"/><stop offset=".1" stop-color="#fd5"/><stop offset=".5" stop-color="#ff543e"/><stop offset="1" stop-color="#c837ab"/></radialGradient><path d="M132 0H0v132h132V0z" fill="url(#a)"/><radialGradient id="b" cx="353.351" cy="54.49" r="70.998" gradientTransform="matrix(.1739 .8687 3.5818 -.7172 -285.41 -262.631)" gradientUnits="userSpaceOnUse"><stop offset="0" stop-color="#3771c8"/><stop offset=".128" stop-color="#3771c8"/><stop offset="1" stop-color="#60f" stop-opacity="0"/></radialGradient><path d="M132 0H0v132h132" fill="url(#b)"/><path d="M66 18c-13 0-14.7.1-19.8.3-5.1.2-8.6 1-11.7 2.2-3.2 1.2-5.8 2.9-8.5 5.5-2.7 2.7-4.3 5.3-5.5 8.5-1.2 3.1-2 6.5-2.2 11.7-.2 5.1-.3 6.8-.3 19.8s.1 14.7.3 19.8c.2 5.1 1 8.6 2.2 11.7 1.2 3.2 2.9 5.8 5.5 8.5 2.7 2.7 5.3 4.3 8.5 5.5 3.1 1.2 6.5 2 11.7 2.2 5.1.2 6.8.3 19.8.3s14.7-.1 19.8-.3c5.1-.2 8.6-1 11.7-2.2 3.2-1.2 5.8-2.9 8.5-5.5 2.7-2.7 4.3-5.3 5.5-8.5 1.2-3.1 2-6.5 2.2-11.7.2-5.1.3-6.8.3-19.8s-.1-14.7-.3-19.8c-.2-5.1-1.1-8.6-2.2-11.7-1.2-3.2-2.9-5.8-5.5-8.5-2.7-2.7-5.3-4.3-8.5-5.5-3.1-1.2-6.6-2-11.7-2.2-5.1-.2-6.8-.3-19.8-.3zm-4.3 8.6H66c12.8 0 14.3 0 19.4.3 4.7.2 7.2 1 8.9 1.7 2.2.9 3.8 1.9 5.5 3.6 1.7 1.7 2.7 3.3 3.6 5.5.7 1.7 1.4 4.2 1.7 8.9.2 5.1.3 6.6.3 19.4s-.1 14.3-.3 19.4c-.2 4.7-1 7.2-1.7 8.9-.9 2.2-1.9 3.8-3.6 5.5-1.7 1.7-3.3 2.7-5.5 3.6-1.7.7-4.2 1.4-8.9 1.7-5.1.2-6.6.3-19.4.3-12.8 0-14.3-.1-19.4-.3-4.7-.2-7.2-1-8.9-1.7-2.2-.9-3.8-1.9-5.5-3.6-1.7-1.7-2.7-3.3-3.6-5.5-.7-1.7-1.4-4.2-1.7-8.9-.2-5.1-.3-6.6-.3-19.4s0-14.3.3-19.4c.2-4.7 1-7.2 1.7-8.9.9-2.2 1.9-3.8 3.6-5.5 1.7-1.7 3.3-2.7 5.5-3.6 1.7-.7 4.2-1.4 8.9-1.7 4.4-.2 6.2-.3 15.1-.3zm29.9 8c-3.2 0-5.8 2.6-5.8 5.8 0 3.2 2.6 5.8 5.8 5.8s5.8-2.6 5.8-5.8-2.6-5.8-5.8-5.8zM66 41.3c-13.6 0-24.7 11-24.7 24.7s11 24.6 24.7 24.6c13.6 0 24.6-11 24.6-24.6S79.6 41.3 66 41.3zm0 8.7c8.8 0 16 7.2 16 16s-7.2 16-16 16-16-7.2-16-16 7.2-16 16-16z" fill="#fff"/></svg>
