<svg id="Calque_1" data-name="Calque 1" xmlns="http://www.w3.org/2000/svg" viewBox="0 0 28.57 28.57"><defs><style>.cls-1{fill:#fff;}.cls-2{fill:#006799;}</style></defs><title>partage-linkdein</title><g id="In"><path class="cls-1" d="M22.88,20.25a1.6,1.6,0,1,0,0,3.19h0a1.6,1.6,0,1,0,0-3.19Z" transform="translate(-14 -12.79)"/><rect class="cls-1" x="7.32" y="11.9" width="3.06" height="9.21"/><path class="cls-1" d="M31.9,24.48A3,3,0,0,0,29.14,26v0h0s0,0,0,0V24.7H26.08c0,.86,0,9.21,0,9.21h3.06V28.76a1.86,1.86,0,0,1,.11-.74,1.67,1.67,0,0,1,1.57-1.12c1.11,0,1.55.84,1.55,2.08v4.93h3.06V28.63C35.43,25.8,33.92,24.48,31.9,24.48Z" transform="translate(-14 -12.79)"/><path class="cls-2" d="M29.14,26v0s0,0,0,0Z" transform="translate(-14 -12.79)"/><path class="cls-2" d="M14,12.79V41.37H42.57V12.79ZM24.39,33.91H21.32V24.7h3.07ZM22.86,23.44h0a1.6,1.6,0,1,1,0-3.19,1.6,1.6,0,1,1,0,3.19ZM35.43,33.91H32.37V29c0-1.24-.44-2.08-1.55-2.08A1.67,1.67,0,0,0,29.25,28a1.86,1.86,0,0,0-.11.74v5.15H26.08s0-8.35,0-9.21h3.06V26a3,3,0,0,1,2.76-1.52c2,0,3.53,1.32,3.53,4.15Z" transform="translate(-14 -12.79)"/></g></svg>