<svg id="Calque_1" data-name="Calque 1" xmlns="http://www.w3.org/2000/svg" viewBox="0 0 33.9 33.9"><defs><style>.cls-1{fill:#fff;}.cls-2{fill:#38a8e0;}</style></defs><title>partage-twitter</title><g id="Twitter"><path class="cls-1" d="M32.06,18.26a6.88,6.88,0,0,1-2.21.84,3.49,3.49,0,0,0-6,2.38,3.35,3.35,0,0,0,.09.79,9.84,9.84,0,0,1-7.17-3.63,3.48,3.48,0,0,0,1.08,4.64,3.39,3.39,0,0,1-1.58-.43v0A3.47,3.47,0,0,0,19,26.3a3.45,3.45,0,0,1-.91.13,2.84,2.84,0,0,1-.66-.07,3.48,3.48,0,0,0,3.25,2.42,7,7,0,0,1-4.32,1.49,7.55,7.55,0,0,1-.83-.05A9.9,9.9,0,0,0,30.8,21.89c0-.16,0-.3,0-.45a7,7,0,0,0,1.73-1.8,7,7,0,0,1-2,.54A3.48,3.48,0,0,0,32.06,18.26Z" transform="translate(-7.1 -7.94)"/><path class="cls-2" d="M7.1,7.94v33.9H41V7.94Zm23.69,13.5c0,.15,0,.29,0,.45a9.9,9.9,0,0,1-15.23,8.33,7.55,7.55,0,0,0,.83.05,7,7,0,0,0,4.32-1.49,3.48,3.48,0,0,1-3.25-2.42,2.84,2.84,0,0,0,.66.07A3.45,3.45,0,0,0,19,26.3a3.47,3.47,0,0,1-2.79-3.41v0a3.39,3.39,0,0,0,1.58.43,3.48,3.48,0,0,1-1.08-4.64,9.84,9.84,0,0,0,7.17,3.63,3.35,3.35,0,0,1-.09-.79,3.49,3.49,0,0,1,6-2.38,6.88,6.88,0,0,0,2.21-.84,3.48,3.48,0,0,1-1.53,1.92,7,7,0,0,0,2-.54A7,7,0,0,1,30.79,21.44Z" transform="translate(-7.1 -7.94)"/></g></svg>